<?xml version="1.0" standalone="no"?>
<!DOCTYPE svg PUBLIC "-//W3C//DTD SVG 20010904//EN"
 "http://www.w3.org/TR/2001/REC-SVG-20010904/DTD/svg10.dtd">
<svg version="1.0" xmlns="http://www.w3.org/2000/svg"
 width="512.000000pt" height="512.000000pt" viewBox="0 0 512.000000 512.000000"
 preserveAspectRatio="xMidYMid meet">
<metadata>
Created by potrace 1.11, written by Peter Selinger 2001-2013
</metadata>
<g transform="translate(0.000000,512.000000) scale(0.100000,-0.100000)"
fill="#000000" stroke="none">
<path d="M54 5070 c-12 -5 -29 -19 -38 -32 -15 -20 -16 -239 -16 -2480 l0
-2457 24 -28 24 -28 2512 0 2512 0 24 28 24 28 0 2459 0 2459 -24 28 -24 28
-2499 2 c-1394 1 -2507 -2 -2519 -7z m4906 -585 l0 -435 -1200 0 -1200 0 0 53
0 52 73 -3 c103 -5 174 23 248 97 220 220 50 592 -261 569 l-60 -4 0 53 0 53
1200 0 1200 0 0 -435z m-3165 146 c126 -73 99 -269 -42 -311 -128 -39 -252 84
-214 211 33 109 158 158 256 100z m925 7 c72 -37 111 -114 96 -191 -8 -45 -68
-113 -112 -127 -84 -28 -178 13 -215 94 -23 50 -24 85 -4 133 21 50 42 72 90
94 53 25 92 24 145 -3z m2240 -2593 l0 -1845 -2400 0 -2400 0 0 1845 0 1845
2400 0 2400 0 0 -1845z"/>
<path d="M1395 3041 c-16 -4 -44 -15 -61 -24 -29 -15 -849 -785 -886 -832 -52
-66 -64 -170 -30 -247 21 -48 41 -68 555 -528 175 -157 341 -297 369 -312 176
-96 386 72 338 270 -7 30 -25 66 -45 89 -18 22 -169 160 -334 308 -166 148
-301 273 -301 277 0 4 144 143 320 310 334 316 357 343 367 432 18 153 -143
295 -292 257z"/>
<path d="M3608 3036 c-130 -36 -206 -175 -164 -303 21 -63 43 -86 389 -413
158 -149 287 -275 287 -279 0 -4 -118 -113 -262 -241 -430 -384 -422 -374
-422 -490 0 -79 24 -131 84 -183 74 -63 189 -74 270 -25 61 37 868 765 897
810 20 30 28 56 31 103 5 73 -8 120 -46 167 -15 19 -214 211 -442 427 -268
254 -429 400 -455 411 -57 26 -113 31 -167 16z"/>
<path d="M2845 2937 c-28 -13 -62 -38 -77 -55 -49 -59 -855 -1465 -869 -1517
-49 -182 155 -354 327 -276 67 31 103 77 223 286 63 110 248 432 411 715 163
283 300 524 304 535 32 76 20 176 -28 239 -66 87 -195 119 -291 73z"/>
</g>
</svg>
